<svg width="45" height="44" viewBox="0 0 45 44" fill="none" xmlns="http://www.w3.org/2000/svg">
<path d="M22.9337 0C29.2962 0 35.6587 0 42.0033 0C44.1003 0 44.853 0.752749 44.853 2.84969C44.853 15.5927 44.853 28.3536 44.853 41.0965C44.853 43.2293 44.0824 44 41.9317 44C29.2424 44 16.5532 44 3.86404 44C1.67748 44 0.888885 43.2114 0.888885 41.0428C0.888885 28.3536 0.888885 15.6644 0.888885 2.97515C0.888885 0.788595 1.67748 0 3.84612 0C10.2086 0 16.5712 0 22.9337 0ZM22.7724 30.6477C22.7724 33.5153 22.7903 36.3829 22.7545 39.2505C22.7365 40.0929 22.9875 40.4334 23.8657 40.3976C25.3353 40.3438 26.7871 40.3976 28.2567 40.3796C30.5329 40.3617 30.282 40.6306 30.282 38.3902C30.282 33.0134 30.282 27.6367 30.282 22.2599C30.282 21.077 30.3537 21.0053 31.5545 21.0053C32.5402 21.0053 33.526 20.9874 34.5117 21.0053C35.0315 21.0053 35.3003 20.8261 35.2824 20.2705C35.2644 18.9263 35.2644 17.5821 35.2824 16.2379C35.2824 15.7181 35.0673 15.4672 34.5296 15.4851C33.7769 15.5031 33.042 15.4851 32.2893 15.4851C30.0669 15.4851 30.031 15.4314 30.282 13.2269C30.5866 10.5923 32.3968 9.21222 35.0315 9.60652C35.3003 9.64236 35.5691 9.66028 35.82 9.73198C36.2681 9.83951 36.4832 9.69613 36.5011 9.21222C36.5549 7.81426 36.5907 6.41629 36.6983 5.01833C36.752 4.22974 36.3936 3.97882 35.6946 3.85336C34.207 3.58452 32.7194 3.54868 31.2319 3.69206C27.3068 4.05051 24.3675 6.50591 23.2742 10.2876C22.8978 11.5959 22.7365 12.9043 22.7365 14.2664C22.7365 15.4851 22.7007 15.5031 21.464 15.5031C21.0697 15.5031 20.6934 15.521 20.2991 15.5031C19.618 15.4493 19.3133 15.7002 19.3492 16.4171C19.385 17.1878 19.3492 17.9764 19.3492 18.747C19.3492 20.9874 19.3492 21.0232 21.6253 21.0053C22.5035 21.0053 22.7545 21.31 22.7545 22.1523C22.7365 24.9662 22.7724 27.798 22.7724 30.6477Z" fill="white"/>
</svg>
