<svg width="370" height="95" viewBox="0 0 370 95" fill="none" xmlns="http://www.w3.org/2000/svg">
<g clip-path="url(#clip0)">
<path fill-rule="evenodd" clip-rule="evenodd" d="M1.41406 93.682H5.87388V67.5176H1.41406V93.682Z" fill="#040E19"/>
<path fill-rule="evenodd" clip-rule="evenodd" d="M37.092 93.6826L36.7355 78.0122L28.4933 90.5058H27.9581L19.6439 77.9766L19.3594 93.6826H14.9707L16.0766 67.1971L16.754 67.126L28.351 84.4732L39.661 67.126L40.3756 67.1971L41.4815 93.6826H37.092Z" fill="#040E19"/>
<path fill-rule="evenodd" clip-rule="evenodd" d="M67.4536 93.682L64.9202 87.6859H54.5721L52.0394 93.682H47.4365L59.4959 67.1602H60.1394L72.1641 93.682H67.4536ZM59.7465 75.4065L56.0352 84.1517H63.457L59.7465 75.4065Z" fill="#040E19"/>
<path fill-rule="evenodd" clip-rule="evenodd" d="M101.204 79.8325V91.2556C98.4216 93.0756 95.3885 94.1114 91.4639 94.1114C84.0066 94.1114 77.584 88.6852 77.584 80.6184C77.584 72.4796 84.1133 67.0898 91.4639 67.0898C95.3174 67.0898 98.0651 68.1612 100.741 69.8033L98.7069 73.3714C96.6019 72.0163 94.1048 71.1948 91.6781 71.1948C85.7187 71.1948 82.3656 75.4073 82.3656 80.6184C82.3656 86.186 86.4681 90.1487 91.6417 90.1487C93.8898 90.1487 95.3885 89.7565 96.9228 88.8995V83.7587H90.8212V79.8325H101.204Z" fill="#040E19"/>
<path fill-rule="evenodd" clip-rule="evenodd" d="M109.872 93.682H114.332V67.5176H109.872V93.682Z" fill="#040E19"/>
<path fill-rule="evenodd" clip-rule="evenodd" d="M144.624 94.1814L128.246 76.9044V93.6817H123.786V67.1599L124.5 67.0176L140.663 84.0439V67.5173H145.122V94.0738L144.624 94.1814Z" fill="#040E19"/>
<path fill-rule="evenodd" clip-rule="evenodd" d="M171.451 93.682L168.918 87.6859H158.571L156.037 93.682H151.435L163.495 67.1602H164.137L176.161 93.682H171.451ZM163.745 75.4065L160.033 84.1517H167.456L163.745 75.4065Z" fill="#040E19"/>
<path fill-rule="evenodd" clip-rule="evenodd" d="M196.676 93.682L190.967 84.2584C190.503 84.2948 190.075 84.2948 189.574 84.2948C188.719 84.2948 187.827 84.2584 186.971 84.2229V93.682H182.511V67.7674C184.579 67.5176 186.756 67.3389 189.397 67.3389C196.818 67.3389 200.101 70.9442 200.101 75.5844C200.101 78.9754 198.246 81.7245 194.999 83.1515L201.85 93.682H196.676ZM189.967 71.3371C188.897 71.3371 187.863 71.3719 186.971 71.5514V80.4753C187.791 80.582 188.684 80.6176 189.54 80.6176C193.428 80.6176 195.391 78.7976 195.391 75.7987C195.391 73.1571 193.392 71.3371 189.967 71.3371Z" fill="#040E19"/>
<path fill-rule="evenodd" clip-rule="evenodd" d="M219.972 82.6883V93.682H215.512V82.6519L206.307 67.5176H211.409L217.832 78.5825L224.183 67.5176H229.178L219.972 82.6883Z" fill="#040E19"/>
<path fill-rule="evenodd" clip-rule="evenodd" d="M249.625 93.1733C242.595 93.1733 236.138 88.39 236.138 79.8946C236.138 71.2925 242.666 66.2949 249.66 66.2949C253.727 66.2949 256.547 67.6153 259.223 69.5437L258.616 70.471C256.046 68.6155 253.406 67.3663 249.66 67.3307C243.452 67.3307 237.35 71.8634 237.35 79.859C237.35 87.8192 243.416 92.1384 249.66 92.1384C253.334 92.1384 255.975 90.8892 258.545 89.1403L259.079 89.9966C256.439 91.8522 253.692 93.1733 249.625 93.1733Z" fill="#040E19"/>
<path fill-rule="evenodd" clip-rule="evenodd" d="M267.247 92.8881V66.7236H268.424V91.8523H281.483V92.8881H267.247Z" fill="#040E19"/>
<path fill-rule="evenodd" clip-rule="evenodd" d="M299.393 93.1722C292.079 93.1722 286.549 87.4607 286.549 79.8224C286.549 72.1832 292.079 66.4014 299.393 66.4014C306.707 66.4014 312.238 72.1832 312.238 79.8224C312.238 87.4607 306.707 93.1722 299.393 93.1722ZM299.393 67.4363C292.649 67.4363 287.761 72.8269 287.761 79.8224C287.761 86.8187 292.649 92.1373 299.393 92.1373C306.137 92.1373 311.026 86.8187 311.026 79.8224C311.026 72.8269 306.137 67.4363 299.393 67.4363Z" fill="#040E19"/>
<path fill-rule="evenodd" clip-rule="evenodd" d="M329.932 93.1735C323.76 93.1735 320.3 89.6749 320.3 83.3214V66.7236H321.478V83.4289C321.478 88.9254 324.653 92.103 329.932 92.103C335.214 92.103 338.461 88.8187 338.461 83.4289V66.7236H339.639V83.3214C339.639 89.5326 335.892 93.1735 329.932 93.1735Z" fill="#040E19"/>
<path fill-rule="evenodd" clip-rule="evenodd" d="M354.763 93.1738C352.444 93.1738 350.054 92.9595 348.84 92.7816V66.8306C350.054 66.6519 352.444 66.4385 354.763 66.4385C364.397 66.4385 369.571 72.8995 369.571 79.5732C369.571 86.9633 364.397 93.1738 354.763 93.1738ZM354.585 67.4734C352.801 67.4734 351.124 67.6157 350.018 67.7596V91.8526C351.124 91.9957 352.801 92.1388 354.585 92.1388C363.505 92.1388 368.358 86.6415 368.358 79.5732C368.358 73.185 363.47 67.4734 354.585 67.4734Z" fill="#040E19"/>
<path fill-rule="evenodd" clip-rule="evenodd" d="M285.651 52.2941H238.39V25.9906C238.39 11.773 250.716 0.205078 265.867 0.205078H285.651C300.803 0.205078 313.13 11.773 313.13 25.9906V26.5102C313.13 40.7279 300.803 52.2941 285.651 52.2941ZM242.821 47.8615H285.651C298.36 47.8615 308.7 38.2824 308.7 26.5102V25.9906C308.7 14.2176 298.36 4.63848 285.651 4.63848H265.867C253.159 4.63848 242.821 14.2176 242.821 25.9906V47.8615Z" fill="#0081FF"/>
</g>
<defs>
<clipPath id="clip0">
<rect width="368.895" height="94.3102" fill="white" transform="translate(0.984375 0.0263672)"/>
</clipPath>
</defs>
</svg>
